<svg xmlns="http://www.w3.org/2000/svg" viewBox="0 0 512 640" x="0px" y="0px"><title>calendar</title><path d="M477,61H451V45a45,45,0,0,0-90,0V61H301V45a45,45,0,0,0-90,0V61H151V45a45,45,0,0,0-90,0V61H35A35,35,0,0,0,0,96V477a35,35,0,0,0,35,35H477a35,35,0,0,0,35-35V96A35,35,0,0,0,477,61ZM391,45a15,15,0,0,1,30,0v75H391ZM241,45a15,15,0,0,1,30,0v75H241ZM91,45a15,15,0,0,1,30,0v75H91ZM35,91H61v44a15,15,0,0,0,15,15h60a15,15,0,0,0,15-15V91h60v44a15,15,0,0,0,15,15h60a15,15,0,0,0,15-15V91h60v44a15,15,0,0,0,15,15h60a15,15,0,0,0,15-15V91h26a5,5,0,0,1,5,5v85H30V96A5,5,0,0,1,35,91ZM477,482H35a5,5,0,0,1-5-5V211H482V477A5,5,0,0,1,477,482Z"/><path d="M135.5,241h-60a15,15,0,0,0-15,15v60a15,15,0,0,0,15,15h60a15,15,0,0,0,15-15V256A15,15,0,0,0,135.5,241Zm-15,60h-30V271h30Z"/><path d="M286.5,241h-60a15,15,0,0,0-15,15v60a15,15,0,0,0,15,15h60a15,15,0,0,0,15-15V256A15,15,0,0,0,286.5,241Zm-15,60h-30V271h30Z"/><path d="M436.5,241h-60a15,15,0,0,0-15,15v60a15,15,0,0,0,15,15h60a15,15,0,0,0,15-15V256A15,15,0,0,0,436.5,241Zm-15,60h-30V271h30Z"/><path d="M135.5,362h-60a15,15,0,0,0-15,15v60a15,15,0,0,0,15,15h60a15,15,0,0,0,15-15V377A15,15,0,0,0,135.5,362Zm-15,60h-30V392h30Z"/><path d="M286.5,362h-60a15,15,0,0,0-15,15v60a15,15,0,0,0,15,15h60a15,15,0,0,0,15-15V377A15,15,0,0,0,286.5,362Zm-15,60h-30V392h30Z"/><path d="M436.5,362h-60a15,15,0,0,0-15,15v60a15,15,0,0,0,15,15h60a15,15,0,0,0,15-15V377A15,15,0,0,0,436.5,362Zm-15,60h-30V392h30Z"/><text x="0" y="527" fill="#000000" font-size="5px" font-weight="bold" font-family="'Helvetica Neue', Helvetica, Arial-Unicode, Arial, Sans-serif">Created by Peter Lakenbrink</text><text x="0" y="532" fill="#000000" font-size="5px" font-weight="bold" font-family="'Helvetica Neue', Helvetica, Arial-Unicode, Arial, Sans-serif">from the Noun Project</text></svg>