<svg xmlns="http://www.w3.org/2000/svg" style="display: none;">
    <defs>
      <symbol id="icon-profile" viewBox="32 -32 96 120">
        <circle cx="80" cy="2.1" r="15"/>
        <path d="M80,18.9c-13.8,0-25,11-25,26h50C105,29.9,93.8,18.9,80,18.9z"/>
      </symbol>

      <!-- Corrected icon-job with proper viewBox and path -->
      <symbol id="icon-job" viewBox="0 0 512 640">
        <path d="M446.61,94.39l-90-90A15,15,0,0,0,346,0H96A35,35,0,0,0,61,35V477a35,35,0,0,0,35,35H416a35,35,0,0,0,35-35V105A15,15,0,0,0,446.61,94.39ZM361,51.21,399.79,90H361ZM416,482H96a5,5,0,0,1-5-5V35a5,5,0,0,1,5-5H331v75a15,15,0,0,0,15,15h75V477A5,5,0,0,1,416,482Z"/>
        <path d="M376,152H256a15,15,0,0,0,0,30H376a15,15,0,0,0,0-30Z"/>
        <path d="M196,122H136a15,15,0,0,0-15,15v60a15,15,0,0,0,15,15h60a15,15,0,0,0,15-15V137A15,15,0,0,0,196,122Zm-15,60H151V152h30Z"/>
        <path d="M376,272H256a15,15,0,0,0,0,30H376a15,15,0,0,0,0-30Z"/>
        <path d="M196,242H136a15,15,0,0,0-15,15v60a15,15,0,0,0,15,15h60a15,15,0,0,0,15-15V257A15,15,0,0,0,196,242Zm-15,60H151V272h30Z"/>
        <path d="M376,392H256a15,15,0,0,0,0,30H376a15,15,0,0,0,0-30Z"/>
        <path d="M196,362H136a15,15,0,0,0-15,15v60a15,15,0,0,0,15,15h60a15,15,0,0,0,15-15V377A15,15,0,0,0,196,362Zm-15,60H151V392h30Z"/>
      </symbol>

      <!-- Corrected icon-calendar with proper viewBox and path -->
      <symbol id="icon-calendar" viewBox="0 0 512 640">
        <path d="M477,61H451V45a45,45,0,0,0-90,0V61H301V45a45,45,0,0,0-90,0V61H151V45a45,45,0,0,0-90,0V61H35A35,35,0,0,0,0,96V477a35,35,0,0,0,35,35H477a35,35,0,0,0,35-35V96A35,35,0,0,0,477,61ZM391,45a15,15,0,0,1,30,0v75H391ZM241,45a15,15,0,0,1,30,0v75H241ZM91,45a15,15,0,0,1,30,0v75H91ZM35,91H61v44a15,15,0,0,0,15,15h60a15,15,0,0,0,15-15V91h60v44a15,15,0,0,0,15,15h60a15,15,0,0,0,15-15V91h60v44a15,15,0,0,0,15,15h60a15,15,0,0,0,15-15V91h26a5,5,0,0,1,5,5v85H30V96A5,5,0,0,1,35,91ZM477,482H35a5,5,0,0,1-5-5V211H482V477A5,5,0,0,1,477,482Z"/>
        <path d="M135.5,241h-60a15,15,0,0,0-15,15v60a15,15,0,0,0,15,15h60a15,15,0,0,0,15-15V256A15,15,0,0,0,135.5,241Zm-15,60h-30V271h30Z"/>
        <path d="M286.5,241h-60a15,15,0,0,0-15,15v60a15,15,0,0,0,15,15h60a15,15,0,0,0,15-15V256A15,15,0,0,0,286.5,241Zm-15,60h-30V271h30Z"/>
        <path d="M436.5,241h-60a15,15,0,0,0-15,15v60a15,15,0,0,0,15,15h60a15,15,0,0,0,15-15V256A15,15,0,0,0,436.5,241Zm-15,60h-30V271h30Z"/>
        <path d="M135.5,391h-60a15,15,0,0,0-15,15v60a15,15,0,0,0,15,15h60a15,15,0,0,0,15-15V406A15,15,0,0,0,135.5,391Zm-15,60h-30V421h30Z"/>
        <path d="M286.5,391h-60a15,15,0,0,0-15,15v60a15,15,0,0,0,15,15h60a15,15,0,0,0,15-15V406A15,15,0,0,0,286.5,391Zm-15,60h-30V421h30Z"/>
        <path d="M436.5,391h-60a15,15,0,0,0-15,15v60a15,15,0,0,0,15,15h60a15,15,0,0,0,15-15V406A15,15,0,0,0,436.5,391Zm-15,60h-30V421h30Z"/>
      </symbol>
    </defs>
  </svg>