<svg xmlns="http://www.w3.org/2000/svg" viewBox="0 0 512 640" x="0px" y="0px"><title>test</title><path d="M446.61,94.39l-90-90A15,15,0,0,0,346,0H96A35,35,0,0,0,61,35V477a35,35,0,0,0,35,35H416a35,35,0,0,0,35-35V105A15,15,0,0,0,446.61,94.39ZM361,51.21,399.79,90H361ZM416,482H96a5,5,0,0,1-5-5V35a5,5,0,0,1,5-5H331v75a15,15,0,0,0,15,15h75V477A5,5,0,0,1,416,482Z"/><path d="M376,152H256a15,15,0,0,0,0,30H376a15,15,0,0,0,0-30Z"/><path d="M196,122H136a15,15,0,0,0-15,15v60a15,15,0,0,0,15,15h60a15,15,0,0,0,15-15V137A15,15,0,0,0,196,122Zm-15,60H151V152h30Z"/><path d="M376,272H256a15,15,0,0,0,0,30H376a15,15,0,0,0,0-30Z"/><path d="M196,242H136a15,15,0,0,0-15,15v60a15,15,0,0,0,15,15h60a15,15,0,0,0,15-15V257A15,15,0,0,0,196,242Zm-15,60H151V272h30Z"/><path d="M376,392H256a15,15,0,0,0,0,30H376a15,15,0,0,0,0-30Z"/><path d="M196,362H136a15,15,0,0,0-15,15v60a15,15,0,0,0,15,15h60a15,15,0,0,0,15-15V377A15,15,0,0,0,196,362Zm-15,60H151V392h30Z"/><text x="0" y="527" fill="#000000" font-size="5px" font-weight="bold" font-family="'Helvetica Neue', Helvetica, Arial-Unicode, Arial, Sans-serif">Created by Peter Lakenbrink</text><text x="0" y="532" fill="#000000" font-size="5px" font-weight="bold" font-family="'Helvetica Neue', Helvetica, Arial-Unicode, Arial, Sans-serif">from the Noun Project</text></svg>